<?xml version="1.0" encoding="utf-8"?>
<svg version="1.1" xmlns:xlink="http://www.w3.org/1999/xlink" width="300px" height="286px" xmlns="http://www.w3.org/2000/svg">
  <defs>
    <pattern id="BGPattern" patternUnits="userSpaceOnUse" alignment="0 0" imageRepeat="None" />
    <mask fill="white" id="Clip129">
      <path d="M 247.09821428571428 153.42708333333331  C 268.08035714285717 130.09027777777777  278.57142857142856 107.99479166666666  278.57142857142856 87.140625  C 278.57142857142856 77.0859375  277.3716517857143 68.21050347222221  274.9720982142857 60.51432291666666  C 272.57254464285717 52.81814236111107  269.5033482142858 46.70464409722221  265.76450892857144 42.173828125  C 262.02566964285717 37.64301215277776  257.4776785714286 33.95008680555555  252.12053571428572 31.095052083333343  C 246.76339285714286 28.24001736111107  241.51785714285714 26.315972222222207  236.38392857142858 25.322916666666657  C 231.25 24.32986111111107  225.78125000000003 23.833333333333343  219.97767857142858 23.833333333333343  C 214.17410714285717 23.833333333333343  207.92410714285714 25.416015625  201.22767857142858 28.581380208333343  C 194.53125 31.746744791666657  188.36495535714286 35.718967013888864  182.72879464285714 40.498046875  C 177.09263392857147 45.27712673611107  172.265625 49.74587673611107  168.24776785714286 53.904296875  C 164.22991071428575 58.062717013888864  160.88169642857144 61.87977430555555  158.203125 65.35546875  C 156.19419642857144 68.08637152777776  153.45982142857144 69.45182291666666  150 69.45182291666666  C 146.54017857142858 69.45182291666666  143.80580357142856 68.08637152777776  141.796875 65.35546875  C 139.11830357142856 61.87977430555555  135.77008928571428 58.062717013888864  131.75223214285714 53.904296875  C 127.734375 49.74587673611107  122.90736607142858 45.27712673611107  117.27120535714286 40.498046875  C 111.63504464285715 35.718967013888864  105.46875 31.746744791666657  98.77232142857143 28.581380208333343  C 92.07589285714286 25.416015625  85.82589285714288 23.833333333333343  80.02232142857143 23.833333333333343  C 74.21875 23.833333333333343  68.75000000000001 24.32986111111107  63.61607142857143 25.322916666666657  C 58.48214285714287 26.315972222222207  53.236607142857146 28.24001736111107  47.879464285714285 31.095052083333343  C 42.52232142857143 33.95008680555555  37.974330357142854 37.64301215277776  34.23549107142857 42.173828125  C 30.49665178571429 46.70464409722221  27.427455357142858 52.81814236111107  25.027901785714285 60.51432291666666  C 22.62834821428572 68.21050347222221  21.428571428571427 77.0859375  21.428571428571427 87.140625  C 21.428571428571427 107.99479166666666  31.86383928571429 130.02821180555554  52.734375 153.24088541666669  L 150 257.51171875  L 247.09821428571428 153.42708333333331  Z M 278.7388392857143 23.088541666666657  C 292.91294642857144 38.48090277777776  300 59.83159722222221  300 87.140625  C 300 114.57378472222221  287.22098214285717 142.5034722222222  261.66294642857144 170.9296875  L 157.36607142857142 282.6484375  C 155.35714285714286 284.8828125  152.90178571428572 286  150 286  C 147.0982142857143 286  144.64285714285717 284.8828125  142.63392857142856 282.6484375  L 38.169642857142854 170.55729166666669  C 37.05357142857143 169.56423611111111  35.51897321428572 167.95052083333331  33.565848214285715 165.71614583333331  C 31.612723214285715 163.48177083333331  28.515625000000004 159.4164496527778  24.274553571428573 153.52018229166669  C 20.033482142857142 147.62391493055551  16.238839285714285 141.57248263888886  12.890625 135.36588541666666  C 9.542410714285714 129.15928819444446  6.556919642857143 121.64930555555556  3.9341517857142856 112.8359375  C 1.3113839285714286 104.02256944444441  0 95.45746527777776  0 87.140625  C 0 59.83159722222221  7.08705357142857 38.48090277777776  21.261160714285715 23.088541666666657  C 35.43526785714286 7.696180555555552  55.02232142857142 0  80.02232142857143 0  C 86.94196428571429 0  94.00111607142857 1.3344184027777601  101.19977678571429 4.003255208333344  C 108.3984375 6.672092013888864  115.09486607142857 10.27191840277776  121.2890625 14.802734375  C 127.48325892857146 19.333550347222207  132.81250000000003 23.585069444444414  137.27678571428572 27.557291666666657  C 141.74107142857144 31.529513888888864  145.98214285714286 35.75  150 40.21875  C 154.01785714285714 35.75  158.25892857142858 31.529513888888864  162.72321428571428 27.557291666666657  C 167.18750000000003 23.585069444444414  172.51674107142858 19.333550347222207  178.7109375 14.802734375  C 184.90513392857142 10.27191840277776  191.6015625 6.672092013888864  198.80022321428572 4.003255208333344  C 205.99888392857142 1.3344184027777601  213.05803571428572 0  219.97767857142858 0  C 244.97767857142858 0  264.56473214285717 7.696180555555552  278.7388392857143 23.088541666666657  Z " fill-rule="evenodd" />
    </mask>
  </defs>
  <g transform="matrix(1 0 0 1 -660 -1462 )">
    <path d="M 247.09821428571428 153.42708333333331  C 268.08035714285717 130.09027777777777  278.57142857142856 107.99479166666666  278.57142857142856 87.140625  C 278.57142857142856 77.0859375  277.3716517857143 68.21050347222221  274.9720982142857 60.51432291666666  C 272.57254464285717 52.81814236111107  269.5033482142858 46.70464409722221  265.76450892857144 42.173828125  C 262.02566964285717 37.64301215277776  257.4776785714286 33.95008680555555  252.12053571428572 31.095052083333343  C 246.76339285714286 28.24001736111107  241.51785714285714 26.315972222222207  236.38392857142858 25.322916666666657  C 231.25 24.32986111111107  225.78125000000003 23.833333333333343  219.97767857142858 23.833333333333343  C 214.17410714285717 23.833333333333343  207.92410714285714 25.416015625  201.22767857142858 28.581380208333343  C 194.53125 31.746744791666657  188.36495535714286 35.718967013888864  182.72879464285714 40.498046875  C 177.09263392857147 45.27712673611107  172.265625 49.74587673611107  168.24776785714286 53.904296875  C 164.22991071428575 58.062717013888864  160.88169642857144 61.87977430555555  158.203125 65.35546875  C 156.19419642857144 68.08637152777776  153.45982142857144 69.45182291666666  150 69.45182291666666  C 146.54017857142858 69.45182291666666  143.80580357142856 68.08637152777776  141.796875 65.35546875  C 139.11830357142856 61.87977430555555  135.77008928571428 58.062717013888864  131.75223214285714 53.904296875  C 127.734375 49.74587673611107  122.90736607142858 45.27712673611107  117.27120535714286 40.498046875  C 111.63504464285715 35.718967013888864  105.46875 31.746744791666657  98.77232142857143 28.581380208333343  C 92.07589285714286 25.416015625  85.82589285714288 23.833333333333343  80.02232142857143 23.833333333333343  C 74.21875 23.833333333333343  68.75000000000001 24.32986111111107  63.61607142857143 25.322916666666657  C 58.48214285714287 26.315972222222207  53.236607142857146 28.24001736111107  47.879464285714285 31.095052083333343  C 42.52232142857143 33.95008680555555  37.974330357142854 37.64301215277776  34.23549107142857 42.173828125  C 30.49665178571429 46.70464409722221  27.427455357142858 52.81814236111107  25.027901785714285 60.51432291666666  C 22.62834821428572 68.21050347222221  21.428571428571427 77.0859375  21.428571428571427 87.140625  C 21.428571428571427 107.99479166666666  31.86383928571429 130.02821180555554  52.734375 153.24088541666669  L 150 257.51171875  L 247.09821428571428 153.42708333333331  Z M 278.7388392857143 23.088541666666657  C 292.91294642857144 38.48090277777776  300 59.83159722222221  300 87.140625  C 300 114.57378472222221  287.22098214285717 142.5034722222222  261.66294642857144 170.9296875  L 157.36607142857142 282.6484375  C 155.35714285714286 284.8828125  152.90178571428572 286  150 286  C 147.0982142857143 286  144.64285714285717 284.8828125  142.63392857142856 282.6484375  L 38.169642857142854 170.55729166666669  C 37.05357142857143 169.56423611111111  35.51897321428572 167.95052083333331  33.565848214285715 165.71614583333331  C 31.612723214285715 163.48177083333331  28.515625000000004 159.4164496527778  24.274553571428573 153.52018229166669  C 20.033482142857142 147.62391493055551  16.238839285714285 141.57248263888886  12.890625 135.36588541666666  C 9.542410714285714 129.15928819444446  6.556919642857143 121.64930555555556  3.9341517857142856 112.8359375  C 1.3113839285714286 104.02256944444441  0 95.45746527777776  0 87.140625  C 0 59.83159722222221  7.08705357142857 38.48090277777776  21.261160714285715 23.088541666666657  C 35.43526785714286 7.696180555555552  55.02232142857142 0  80.02232142857143 0  C 86.94196428571429 0  94.00111607142857 1.3344184027777601  101.19977678571429 4.003255208333344  C 108.3984375 6.672092013888864  115.09486607142857 10.27191840277776  121.2890625 14.802734375  C 127.48325892857146 19.333550347222207  132.81250000000003 23.585069444444414  137.27678571428572 27.557291666666657  C 141.74107142857144 31.529513888888864  145.98214285714286 35.75  150 40.21875  C 154.01785714285714 35.75  158.25892857142858 31.529513888888864  162.72321428571428 27.557291666666657  C 167.18750000000003 23.585069444444414  172.51674107142858 19.333550347222207  178.7109375 14.802734375  C 184.90513392857142 10.27191840277776  191.6015625 6.672092013888864  198.80022321428572 4.003255208333344  C 205.99888392857142 1.3344184027777601  213.05803571428572 0  219.97767857142858 0  C 244.97767857142858 0  264.56473214285717 7.696180555555552  278.7388392857143 23.088541666666657  Z " fill-rule="nonzero" fill="rgba(249, 0, 0, 1)" stroke="none" transform="matrix(1 0 0 1 660 1462 )" class="fill" />
    <path d="M 247.09821428571428 153.42708333333331  C 268.08035714285717 130.09027777777777  278.57142857142856 107.99479166666666  278.57142857142856 87.140625  C 278.57142857142856 77.0859375  277.3716517857143 68.21050347222221  274.9720982142857 60.51432291666666  C 272.57254464285717 52.81814236111107  269.5033482142858 46.70464409722221  265.76450892857144 42.173828125  C 262.02566964285717 37.64301215277776  257.4776785714286 33.95008680555555  252.12053571428572 31.095052083333343  C 246.76339285714286 28.24001736111107  241.51785714285714 26.315972222222207  236.38392857142858 25.322916666666657  C 231.25 24.32986111111107  225.78125000000003 23.833333333333343  219.97767857142858 23.833333333333343  C 214.17410714285717 23.833333333333343  207.92410714285714 25.416015625  201.22767857142858 28.581380208333343  C 194.53125 31.746744791666657  188.36495535714286 35.718967013888864  182.72879464285714 40.498046875  C 177.09263392857147 45.27712673611107  172.265625 49.74587673611107  168.24776785714286 53.904296875  C 164.22991071428575 58.062717013888864  160.88169642857144 61.87977430555555  158.203125 65.35546875  C 156.19419642857144 68.08637152777776  153.45982142857144 69.45182291666666  150 69.45182291666666  C 146.54017857142858 69.45182291666666  143.80580357142856 68.08637152777776  141.796875 65.35546875  C 139.11830357142856 61.87977430555555  135.77008928571428 58.062717013888864  131.75223214285714 53.904296875  C 127.734375 49.74587673611107  122.90736607142858 45.27712673611107  117.27120535714286 40.498046875  C 111.63504464285715 35.718967013888864  105.46875 31.746744791666657  98.77232142857143 28.581380208333343  C 92.07589285714286 25.416015625  85.82589285714288 23.833333333333343  80.02232142857143 23.833333333333343  C 74.21875 23.833333333333343  68.75000000000001 24.32986111111107  63.61607142857143 25.322916666666657  C 58.48214285714287 26.315972222222207  53.236607142857146 28.24001736111107  47.879464285714285 31.095052083333343  C 42.52232142857143 33.95008680555555  37.974330357142854 37.64301215277776  34.23549107142857 42.173828125  C 30.49665178571429 46.70464409722221  27.427455357142858 52.81814236111107  25.027901785714285 60.51432291666666  C 22.62834821428572 68.21050347222221  21.428571428571427 77.0859375  21.428571428571427 87.140625  C 21.428571428571427 107.99479166666666  31.86383928571429 130.02821180555554  52.734375 153.24088541666669  L 150 257.51171875  L 247.09821428571428 153.42708333333331  Z " stroke-width="0" stroke-dasharray="0" stroke="rgba(255, 255, 255, 0)" fill="none" transform="matrix(1 0 0 1 660 1462 )" class="stroke" mask="url(#Clip129)" />
    <path d="M 278.7388392857143 23.088541666666657  C 292.91294642857144 38.48090277777776  300 59.83159722222221  300 87.140625  C 300 114.57378472222221  287.22098214285717 142.5034722222222  261.66294642857144 170.9296875  L 157.36607142857142 282.6484375  C 155.35714285714286 284.8828125  152.90178571428572 286  150 286  C 147.0982142857143 286  144.64285714285717 284.8828125  142.63392857142856 282.6484375  L 38.169642857142854 170.55729166666669  C 37.05357142857143 169.56423611111111  35.51897321428572 167.95052083333331  33.565848214285715 165.71614583333331  C 31.612723214285715 163.48177083333331  28.515625000000004 159.4164496527778  24.274553571428573 153.52018229166669  C 20.033482142857142 147.62391493055551  16.238839285714285 141.57248263888886  12.890625 135.36588541666666  C 9.542410714285714 129.15928819444446  6.556919642857143 121.64930555555556  3.9341517857142856 112.8359375  C 1.3113839285714286 104.02256944444441  0 95.45746527777776  0 87.140625  C 0 59.83159722222221  7.08705357142857 38.48090277777776  21.261160714285715 23.088541666666657  C 35.43526785714286 7.696180555555552  55.02232142857142 0  80.02232142857143 0  C 86.94196428571429 0  94.00111607142857 1.3344184027777601  101.19977678571429 4.003255208333344  C 108.3984375 6.672092013888864  115.09486607142857 10.27191840277776  121.2890625 14.802734375  C 127.48325892857146 19.333550347222207  132.81250000000003 23.585069444444414  137.27678571428572 27.557291666666657  C 141.74107142857144 31.529513888888864  145.98214285714286 35.75  150 40.21875  C 154.01785714285714 35.75  158.25892857142858 31.529513888888864  162.72321428571428 27.557291666666657  C 167.18750000000003 23.585069444444414  172.51674107142858 19.333550347222207  178.7109375 14.802734375  C 184.90513392857142 10.27191840277776  191.6015625 6.672092013888864  198.80022321428572 4.003255208333344  C 205.99888392857142 1.3344184027777601  213.05803571428572 0  219.97767857142858 0  C 244.97767857142858 0  264.56473214285717 7.696180555555552  278.7388392857143 23.088541666666657  Z " stroke-width="0" stroke-dasharray="0" stroke="rgba(255, 255, 255, 0)" fill="none" transform="matrix(1 0 0 1 660 1462 )" class="stroke" mask="url(#Clip129)" />
  </g>
</svg>