<?xml version="1.0" encoding="utf-8"?>
<svg version="1.1" xmlns:xlink="http://www.w3.org/1999/xlink" width="318px" height="315px" xmlns="http://www.w3.org/2000/svg">
  <defs>
    <pattern id="BGPattern" patternUnits="userSpaceOnUse" alignment="0 0" imageRepeat="None" />
    <mask fill="white" id="Clip123">
      <path d="M 261.92410714285717 168.98437499999997  C 284.1651785714286 143.28124999999997  295.2857142857143 118.94531249999999  295.2857142857143 95.9765625  C 295.2857142857143 84.90234375  294.01395089285717 75.12695312499999  291.47042410714283 66.65039062499999  C 288.92689732142856 58.17382812499996  285.6735491071429 51.440429687499986  281.7103794642857 46.4501953125  C 277.7472098214286 41.45996093749998  272.92633928571433 37.39257812499999  267.24776785714283 34.248046875000014  C 261.56919642857144 31.103515624999957  256.00892857142856 28.984374999999986  250.5669642857143 27.89062499999999  C 245.125 26.796874999999957  239.32812500000003 26.25000000000001  233.1763392857143 26.25000000000001  C 227.0245535714286 26.25000000000001  220.39955357142856 27.9931640625  213.3013392857143 31.47949218750001  C 206.203125 34.965820312499986  199.66685267857144 39.34082031249997  193.69252232142856 44.6044921875  C 187.71819196428575 49.86816406249996  182.6015625 54.79003906249996  178.34263392857144 59.3701171875  C 174.0837053571429 63.95019531249997  170.53459821428575 68.154296875  167.6953125 71.982421875  C 165.56584821428575 74.99023437499999  162.66741071428572 76.49414062499999  159 76.49414062499999  C 155.33258928571428 76.49414062499999  152.43415178571428 74.99023437499999  150.3046875 71.982421875  C 147.46540178571428 68.154296875  143.91629464285714 63.95019531249997  139.65736607142858 59.3701171875  C 135.3984375 54.79003906249996  130.2818080357143 49.86816406249996  124.30747767857143 44.6044921875  C 118.33314732142858 39.34082031249997  111.796875 34.965820312499986  104.69866071428572 31.47949218750001  C 97.60044642857143 27.9931640625  90.97544642857144 26.25000000000001  84.82366071428572 26.25000000000001  C 78.671875 26.25000000000001  72.87500000000001 26.796874999999957  67.43303571428571 27.89062499999999  C 61.99107142857144 28.984374999999986  56.43080357142858 31.103515624999957  50.75223214285714 34.248046875000014  C 45.073660714285715 37.39257812499999  40.25279017857143 41.45996093749998  36.289620535714285 46.4501953125  C 32.326450892857146 51.440429687499986  29.07310267857143 58.17382812499996  26.529575892857142 66.65039062499999  C 23.98604910714286 75.12695312499999  22.71428571428571 84.90234375  22.71428571428571 95.9765625  C 22.71428571428571 118.94531249999999  33.775669642857146 143.212890625  55.8984375 168.77929687500003  L 159 283.623046875  L 261.92410714285717 168.98437499999997  Z M 295.46316964285717 25.42968749999999  C 310.4877232142857 42.38281249999998  318 65.89843749999999  318 95.9765625  C 318 126.19140624999999  304.45424107142856 156.95312499999997  277.3627232142857 188.26171875  L 166.8080357142857 311.30859375  C 164.67857142857144 313.76953125  162.07589285714286 315  159 315  C 155.92410714285717 315  153.32142857142858 313.76953125  151.19196428571428 311.30859375  L 40.45982142857142 187.85156250000003  C 39.276785714285715 186.7578125  37.65011160714286 184.98046874999997  35.579799107142854 182.51953124999997  C 33.50948660714286 180.05859374999997  30.226562500000004 175.58105468750003  25.73102678571429 169.08691406250003  C 21.23549107142857 162.59277343749997  17.213169642857142 155.92773437499997  13.6640625 149.091796875  C 10.114955357142856 142.255859375  6.950334821428572 133.984375  4.170200892857143 124.27734375  C 1.3900669642857144 114.57031249999997  0 105.13671874999999  0 95.9765625  C 0 65.89843749999999  7.512276785714285 42.38281249999998  22.536830357142858 25.42968749999999  C 37.56138392857143 8.476562499999996  58.32366071428571 0  84.82366071428572 0  C 92.15848214285714 0  99.64118303571428 1.4697265624999805  107.27176339285715 4.4091796875000115  C 114.90234375 7.3486328124999725  122.00055803571428 11.31347656249998  128.56640625 16.3037109375  C 135.13225446428575 21.293945312499986  140.78125000000003 25.976562499999968  145.51339285714286 30.35156249999999  C 150.24553571428572 34.72656249999997  154.74107142857142 39.375  159 44.296875  C 163.25892857142856 39.375  167.7544642857143 34.72656249999997  172.48660714285714 30.35156249999999  C 177.21875000000003 25.976562499999968  182.8677455357143 21.293945312499986  189.43359375 16.3037109375  C 195.9994419642857 11.31347656249998  203.09765625 7.3486328124999725  210.72823660714286 4.4091796875000115  C 218.3588169642857 1.4697265624999805  225.8415178571429 0  233.1763392857143 0  C 259.67633928571433 0  280.4386160714286 8.476562499999996  295.46316964285717 25.42968749999999  Z " fill-rule="evenodd" />
    </mask>
  </defs>
  <g transform="matrix(1 0 0 1 -794 -1565 )">
    <path d="M 261.92410714285717 168.98437499999997  C 284.1651785714286 143.28124999999997  295.2857142857143 118.94531249999999  295.2857142857143 95.9765625  C 295.2857142857143 84.90234375  294.01395089285717 75.12695312499999  291.47042410714283 66.65039062499999  C 288.92689732142856 58.17382812499996  285.6735491071429 51.440429687499986  281.7103794642857 46.4501953125  C 277.7472098214286 41.45996093749998  272.92633928571433 37.39257812499999  267.24776785714283 34.248046875000014  C 261.56919642857144 31.103515624999957  256.00892857142856 28.984374999999986  250.5669642857143 27.89062499999999  C 245.125 26.796874999999957  239.32812500000003 26.25000000000001  233.1763392857143 26.25000000000001  C 227.0245535714286 26.25000000000001  220.39955357142856 27.9931640625  213.3013392857143 31.47949218750001  C 206.203125 34.965820312499986  199.66685267857144 39.34082031249997  193.69252232142856 44.6044921875  C 187.71819196428575 49.86816406249996  182.6015625 54.79003906249996  178.34263392857144 59.3701171875  C 174.0837053571429 63.95019531249997  170.53459821428575 68.154296875  167.6953125 71.982421875  C 165.56584821428575 74.99023437499999  162.66741071428572 76.49414062499999  159 76.49414062499999  C 155.33258928571428 76.49414062499999  152.43415178571428 74.99023437499999  150.3046875 71.982421875  C 147.46540178571428 68.154296875  143.91629464285714 63.95019531249997  139.65736607142858 59.3701171875  C 135.3984375 54.79003906249996  130.2818080357143 49.86816406249996  124.30747767857143 44.6044921875  C 118.33314732142858 39.34082031249997  111.796875 34.965820312499986  104.69866071428572 31.47949218750001  C 97.60044642857143 27.9931640625  90.97544642857144 26.25000000000001  84.82366071428572 26.25000000000001  C 78.671875 26.25000000000001  72.87500000000001 26.796874999999957  67.43303571428571 27.89062499999999  C 61.99107142857144 28.984374999999986  56.43080357142858 31.103515624999957  50.75223214285714 34.248046875000014  C 45.073660714285715 37.39257812499999  40.25279017857143 41.45996093749998  36.289620535714285 46.4501953125  C 32.326450892857146 51.440429687499986  29.07310267857143 58.17382812499996  26.529575892857142 66.65039062499999  C 23.98604910714286 75.12695312499999  22.71428571428571 84.90234375  22.71428571428571 95.9765625  C 22.71428571428571 118.94531249999999  33.775669642857146 143.212890625  55.8984375 168.77929687500003  L 159 283.623046875  L 261.92410714285717 168.98437499999997  Z M 295.46316964285717 25.42968749999999  C 310.4877232142857 42.38281249999998  318 65.89843749999999  318 95.9765625  C 318 126.19140624999999  304.45424107142856 156.95312499999997  277.3627232142857 188.26171875  L 166.8080357142857 311.30859375  C 164.67857142857144 313.76953125  162.07589285714286 315  159 315  C 155.92410714285717 315  153.32142857142858 313.76953125  151.19196428571428 311.30859375  L 40.45982142857142 187.85156250000003  C 39.276785714285715 186.7578125  37.65011160714286 184.98046874999997  35.579799107142854 182.51953124999997  C 33.50948660714286 180.05859374999997  30.226562500000004 175.58105468750003  25.73102678571429 169.08691406250003  C 21.23549107142857 162.59277343749997  17.213169642857142 155.92773437499997  13.6640625 149.091796875  C 10.114955357142856 142.255859375  6.950334821428572 133.984375  4.170200892857143 124.27734375  C 1.3900669642857144 114.57031249999997  0 105.13671874999999  0 95.9765625  C 0 65.89843749999999  7.512276785714285 42.38281249999998  22.536830357142858 25.42968749999999  C 37.56138392857143 8.476562499999996  58.32366071428571 0  84.82366071428572 0  C 92.15848214285714 0  99.64118303571428 1.4697265624999805  107.27176339285715 4.4091796875000115  C 114.90234375 7.3486328124999725  122.00055803571428 11.31347656249998  128.56640625 16.3037109375  C 135.13225446428575 21.293945312499986  140.78125000000003 25.976562499999968  145.51339285714286 30.35156249999999  C 150.24553571428572 34.72656249999997  154.74107142857142 39.375  159 44.296875  C 163.25892857142856 39.375  167.7544642857143 34.72656249999997  172.48660714285714 30.35156249999999  C 177.21875000000003 25.976562499999968  182.8677455357143 21.293945312499986  189.43359375 16.3037109375  C 195.9994419642857 11.31347656249998  203.09765625 7.3486328124999725  210.72823660714286 4.4091796875000115  C 218.3588169642857 1.4697265624999805  225.8415178571429 0  233.1763392857143 0  C 259.67633928571433 0  280.4386160714286 8.476562499999996  295.46316964285717 25.42968749999999  Z " fill-rule="nonzero" fill="rgba(249, 0, 0, 1)" stroke="none" transform="matrix(1 0 0 1 794 1565 )" class="fill" />
    <path d="M 261.92410714285717 168.98437499999997  C 284.1651785714286 143.28124999999997  295.2857142857143 118.94531249999999  295.2857142857143 95.9765625  C 295.2857142857143 84.90234375  294.01395089285717 75.12695312499999  291.47042410714283 66.65039062499999  C 288.92689732142856 58.17382812499996  285.6735491071429 51.440429687499986  281.7103794642857 46.4501953125  C 277.7472098214286 41.45996093749998  272.92633928571433 37.39257812499999  267.24776785714283 34.248046875000014  C 261.56919642857144 31.103515624999957  256.00892857142856 28.984374999999986  250.5669642857143 27.89062499999999  C 245.125 26.796874999999957  239.32812500000003 26.25000000000001  233.1763392857143 26.25000000000001  C 227.0245535714286 26.25000000000001  220.39955357142856 27.9931640625  213.3013392857143 31.47949218750001  C 206.203125 34.965820312499986  199.66685267857144 39.34082031249997  193.69252232142856 44.6044921875  C 187.71819196428575 49.86816406249996  182.6015625 54.79003906249996  178.34263392857144 59.3701171875  C 174.0837053571429 63.95019531249997  170.53459821428575 68.154296875  167.6953125 71.982421875  C 165.56584821428575 74.99023437499999  162.66741071428572 76.49414062499999  159 76.49414062499999  C 155.33258928571428 76.49414062499999  152.43415178571428 74.99023437499999  150.3046875 71.982421875  C 147.46540178571428 68.154296875  143.91629464285714 63.95019531249997  139.65736607142858 59.3701171875  C 135.3984375 54.79003906249996  130.2818080357143 49.86816406249996  124.30747767857143 44.6044921875  C 118.33314732142858 39.34082031249997  111.796875 34.965820312499986  104.69866071428572 31.47949218750001  C 97.60044642857143 27.9931640625  90.97544642857144 26.25000000000001  84.82366071428572 26.25000000000001  C 78.671875 26.25000000000001  72.87500000000001 26.796874999999957  67.43303571428571 27.89062499999999  C 61.99107142857144 28.984374999999986  56.43080357142858 31.103515624999957  50.75223214285714 34.248046875000014  C 45.073660714285715 37.39257812499999  40.25279017857143 41.45996093749998  36.289620535714285 46.4501953125  C 32.326450892857146 51.440429687499986  29.07310267857143 58.17382812499996  26.529575892857142 66.65039062499999  C 23.98604910714286 75.12695312499999  22.71428571428571 84.90234375  22.71428571428571 95.9765625  C 22.71428571428571 118.94531249999999  33.775669642857146 143.212890625  55.8984375 168.77929687500003  L 159 283.623046875  L 261.92410714285717 168.98437499999997  Z " stroke-width="0" stroke-dasharray="0" stroke="rgba(255, 255, 255, 0)" fill="none" transform="matrix(1 0 0 1 794 1565 )" class="stroke" mask="url(#Clip123)" />
    <path d="M 295.46316964285717 25.42968749999999  C 310.4877232142857 42.38281249999998  318 65.89843749999999  318 95.9765625  C 318 126.19140624999999  304.45424107142856 156.95312499999997  277.3627232142857 188.26171875  L 166.8080357142857 311.30859375  C 164.67857142857144 313.76953125  162.07589285714286 315  159 315  C 155.92410714285717 315  153.32142857142858 313.76953125  151.19196428571428 311.30859375  L 40.45982142857142 187.85156250000003  C 39.276785714285715 186.7578125  37.65011160714286 184.98046874999997  35.579799107142854 182.51953124999997  C 33.50948660714286 180.05859374999997  30.226562500000004 175.58105468750003  25.73102678571429 169.08691406250003  C 21.23549107142857 162.59277343749997  17.213169642857142 155.92773437499997  13.6640625 149.091796875  C 10.114955357142856 142.255859375  6.950334821428572 133.984375  4.170200892857143 124.27734375  C 1.3900669642857144 114.57031249999997  0 105.13671874999999  0 95.9765625  C 0 65.89843749999999  7.512276785714285 42.38281249999998  22.536830357142858 25.42968749999999  C 37.56138392857143 8.476562499999996  58.32366071428571 0  84.82366071428572 0  C 92.15848214285714 0  99.64118303571428 1.4697265624999805  107.27176339285715 4.4091796875000115  C 114.90234375 7.3486328124999725  122.00055803571428 11.31347656249998  128.56640625 16.3037109375  C 135.13225446428575 21.293945312499986  140.78125000000003 25.976562499999968  145.51339285714286 30.35156249999999  C 150.24553571428572 34.72656249999997  154.74107142857142 39.375  159 44.296875  C 163.25892857142856 39.375  167.7544642857143 34.72656249999997  172.48660714285714 30.35156249999999  C 177.21875000000003 25.976562499999968  182.8677455357143 21.293945312499986  189.43359375 16.3037109375  C 195.9994419642857 11.31347656249998  203.09765625 7.3486328124999725  210.72823660714286 4.4091796875000115  C 218.3588169642857 1.4697265624999805  225.8415178571429 0  233.1763392857143 0  C 259.67633928571433 0  280.4386160714286 8.476562499999996  295.46316964285717 25.42968749999999  Z " stroke-width="0" stroke-dasharray="0" stroke="rgba(255, 255, 255, 0)" fill="none" transform="matrix(1 0 0 1 794 1565 )" class="stroke" mask="url(#Clip123)" />
  </g>
</svg>